<svg id="图层_1" data-name="图层 1" xmlns="http://www.w3.org/2000/svg" viewBox="0 0 56 56"><defs><style>.cls-1{fill:#fff7ef;}.cls-2{fill:#cea983;fill-rule:evenodd;}</style></defs><g id="交互说明"><g id="个人中心设计说明"><g id="文档备份-2"><g id="会员"><g id="编组-11"><circle id="椭圆形备份-3" class="cls-1" cx="28" cy="28" r="28"/><g id="编组-3"><path id="形状结合" class="cls-2" d="M37,20a1,1,0,0,1,1,1V39a1,1,0,0,1-1,1H22a1,1,0,0,1-1-1V21a1,1,0,0,1,1-1Zm-3-3a1,1,0,0,1,1,1v1H21a1,1,0,0,0-1,.88V37H19a1,1,0,0,1-1-1V18a1,1,0,0,1,1-1ZM32.5,36.25l-2.06,1.08.4-2.29-1.67-1.62,2.3-.34,1-2.08,1,2.08,2.3.34L34.16,35l.4,2.29Z"/></g></g></g></g></g></g></svg>