<svg id="图层_1" data-name="图层 1" xmlns="http://www.w3.org/2000/svg" viewBox="0 0 56 56"><defs><style>.cls-1{fill:#fff7ef;}.cls-2{fill:#cea983;fill-rule:evenodd;}</style></defs><g id="交互说明"><g id="个人中心设计说明"><g id="文档备份-2"><g id="会员"><g id="编组-9"><circle id="椭圆形备份-2" class="cls-1" cx="28" cy="28" r="28"/><g id="批量验证"><path id="形状结合" class="cls-2" d="M35,17a1,1,0,0,1,1,1v8.87A7.38,7.38,0,0,0,32.5,26a7.5,7.5,0,0,0-3.74,14H18a1,1,0,0,1-1-1V18a1,1,0,0,1,1-1ZM24.5,29h-4a.5.5,0,0,0,0,1h4a.5.5,0,0,0,0-1Zm3-4h-7a.5.5,0,0,0,0,1h7a.5.5,0,0,0,0-1Zm5-4h-12a.5.5,0,0,0,0,1h12a.5.5,0,0,0,0-1Z"/><path id="形状结合-2" data-name="形状结合" class="cls-2" d="M32.5,27A6.5,6.5,0,1,1,26,33.5,6.5,6.5,0,0,1,32.5,27Zm3.18,3.78a.48.48,0,0,0-.7,0h0l-3.89,3.88-1.82-1.81a.5.5,0,0,0-.71,0h0l-.35.35a.51.51,0,0,0,0,.71h0l2.55,2.55.07,0a.49.49,0,0,0,.63,0h0l4.6-4.6a.5.5,0,0,0,0-.71h0Z"/></g></g></g></g></g></g></svg>