<svg id="图层_1" data-name="图层 1" xmlns="http://www.w3.org/2000/svg" viewBox="0 0 56 56"><defs><style>.cls-1{fill:#fff7ef;}.cls-2{fill:#cea983;fill-rule:evenodd;}</style></defs><g id="交互说明"><g id="个人中心设计说明"><g id="文档备份-2"><g id="会员"><g id="编组-7"><circle id="椭圆形" class="cls-1" cx="28" cy="28" r="28"/><g id="电子签章"><path id="形状结合" class="cls-2" d="M17,36V32A1,1,0,0,1,18,31l4.93-.24h0a5.94,5.94,0,0,0,2.81-5.54,5.6,5.6,0,0,0-.15-1.4,4.58,4.58,0,0,1-1.34-3.28A4.36,4.36,0,0,1,28.41,16a4.35,4.35,0,0,1,4.21,4.49,4.63,4.63,0,0,1-1.31,3.26A4.17,4.17,0,0,0,31.13,25v.14a6.17,6.17,0,0,0,3.1,5.54l4.82.24a1,1,0,0,1,1,1V36a1,1,0,0,1-1,1H18A1,1,0,0,1,17,36Zm.5,2h22a.5.5,0,0,1,.5.5v1a.5.5,0,0,1-.5.5h-22a.5.5,0,0,1-.5-.5v-1A.5.5,0,0,1,17.5,38Z"/></g></g></g></g></g></g></svg>