<?xml version="1.0" encoding="UTF-8"?>
<svg width="64px" height="64px" viewBox="0 0 64 64" version="1.1" xmlns="http://www.w3.org/2000/svg" xmlns:xlink="http://www.w3.org/1999/xlink">
    <title>sjd_quick_sign</title>
    <g id="sjd_quick_sign" stroke="none" stroke-width="1" fill="none" fill-rule="evenodd">
        <circle id="椭圆形" fill="#D52C2C" cx="31.9479167" cy="18.3645833" r="15.3645833"></circle>
        <path d="M5.54031349,50.4529077 C6.6223456,44.9844048 11.7182508,41.8327548 20.8280292,40.9979578 C25.7832735,39.4964414 25.834582,32.9372711 21.4111758,29.469412 C19.2278568,27.7577351 47.5113825,25.3081007 42.7369503,29.469412 C39.148291,32.5972245 38.8461677,40.2773266 43.1398181,40.9979578 C51.2596523,42.3607623 56.3134711,45.4842221 58.3012746,50.3683373 C58.3501782,50.487024 58.3749458,50.6141774 58.375,50.7425417 L58.375,61 C58.375,61.5522847 57.9272847,62 57.375,62 L6.52083333,62 C5.96854858,62 5.52083333,61.5522847 5.52083333,61 L5.52083333,50.6447358 C5.52083405,50.5802861 5.52706537,50.5159874 5.54031349,50.4529077 Z" id="矩形" fill="#D52C2C"></path>
        <rect id="矩形" fill="#FFFFFF" x="11.6666667" y="52.1666667" width="39.3333333" height="4.91666667" rx="2"></rect>
    </g>
</svg>