<?xml version="1.0" encoding="UTF-8"?>
<svg width="64px" height="64px" viewBox="0 0 64 64" version="1.1" xmlns="http://www.w3.org/2000/svg" xmlns:xlink="http://www.w3.org/1999/xlink">
    <title>sjd_appstore</title>
    <g id="sjd_appstore" stroke="none" stroke-width="1" fill="none" fill-rule="evenodd">
        <g id="编组" transform="translate(4.000000, 4.000000)" fill="#D52C2C" fill-rule="nonzero">
            <path d="M17.654321,5.38659795 C18.6351166,5.38659795 19.4744513,5.72680413 20.1723251,6.40721649 C20.8701989,7.08762886 21.2191358,7.91924398 21.2191358,8.90206188 L21.2191358,23.0773196 C21.2191358,24.0601374 20.8701989,24.9012027 20.1723251,25.6005154 C19.4744513,26.2998282 18.6351166,26.6494845 17.654321,26.6494845 L3.50823047,26.6494845 C2.52743487,26.6494845 1.69753088,26.2998282 1.01851851,25.6005154 C0.339506131,24.9012027 0,24.0601374 0,23.0773196 L0,8.90206188 C0,7.91924402 0.339506169,7.08762889 1.01851851,6.40721649 C1.69753084,5.72680409 2.52743483,5.38659795 3.50823047,5.38659795 L17.654321,5.38659795 Z M17.654321,33.7371134 C18.6351166,33.7371134 19.4744513,34.0773196 20.1723251,34.7577319 C20.8701989,35.4381443 21.2191358,36.2697594 21.2191358,37.2525773 L21.2191358,51.4845361 C21.2191358,52.4673539 20.8701989,53.2989691 20.1723251,53.9793815 C19.4744513,54.6597939 18.6351166,55 17.654321,55 L3.50823047,55 C2.52743487,55 1.69753088,54.6597938 1.01851851,53.9793815 C0.339506131,53.2989691 0,52.467354 0,51.4845361 L0,37.2525773 C0,36.2697594 0.339506169,35.4381443 1.01851851,34.7577319 C1.69753084,34.0773195 2.52743483,33.7371134 3.50823047,33.7371134 L17.654321,33.7371134 Z M46.0030864,33.7371134 C46.983882,33.7371134 47.813786,34.0773196 48.4927984,34.7577319 C49.1718108,35.4381443 49.5113169,36.2697594 49.5113169,37.2525773 L49.5113169,51.4845361 C49.5113169,52.4673539 49.1718107,53.2989691 48.4927984,53.9793815 C47.8137861,54.6597939 46.9838821,55 46.0030864,55 L31.8569959,55 C30.8762003,55 30.0368656,54.6597938 29.3389918,53.9793815 C28.641118,53.2989691 28.2921811,52.467354 28.2921811,51.4845361 L28.2921811,37.2525773 C28.2921811,36.2697594 28.641118,35.4381443 29.3389918,34.7577319 C30.0368656,34.0773195 30.8762003,33.7371134 31.8569959,33.7371134 L46.0030864,33.7371134 Z M53.8683128,11.6237113 C54.6227709,12.3797251 55,13.2680412 55,14.2886598 C55,15.3092783 54.6227709,16.1786941 53.8683128,16.8969072 L43.3436214,27.4432989 C42.5891633,28.1993127 41.7121057,28.5773195 40.7124486,28.5773195 C39.7127915,28.5773195 38.8357339,28.1993127 38.0812758,27.4432989 L27.5565844,16.8969072 C26.8398492,16.1786941 26.4814816,15.3092783 26.4814816,14.2886598 C26.4814816,13.2680412 26.8398492,12.3797251 27.5565844,11.6237113 L38.0812758,1.0773196 C38.8357339,0.359106534 39.7127915,0 40.7124486,0 C41.7121057,0 42.5891633,0.359106534 43.3436214,1.0773196 L53.8683128,11.6237113 Z" id="形状"></path>
        </g>
    </g>
</svg>