<svg id="图层_1" data-name="图层 1" xmlns="http://www.w3.org/2000/svg" xmlns:xlink="http://www.w3.org/1999/xlink" viewBox="0 0 24 24"><defs><style>.cls-1{fill:none;}.cls-2{clip-path:url(#clip-path);}.cls-3{fill:#edcaa6;}.cls-4{fill:#ecc9a5;}.cls-5{fill:#ebc8a4;}.cls-6{fill:#eac7a3;}.cls-7{fill:#e9c6a2;}.cls-8{fill:#f4d2ae;}.cls-9{fill:#f4d1ad;}.cls-10{fill:#f3d0ac;}.cls-11{fill:#f2cfab;}.cls-12{fill:#f1ceaa;}.cls-13{fill:#f0cda9;}.cls-14{fill:#efcca8;}.cls-15{fill:#eecba7;}.cls-16{fill:#e9c5a1;}.cls-17{fill:#e8c4a0;}.cls-18{fill:#e7c39f;}.cls-19{fill:#e6c29e;}.cls-20{fill:#e5c19d;}.cls-21{fill:#e4c09c;}.cls-22{fill:#e3c09a;}.cls-23{fill:#e2bf99;}.cls-24{fill:#e1be98;}.cls-25{fill:#e0bd97;}.cls-26{fill:#dfbc96;}.cls-27{fill:#debb95;}.cls-28{fill:#deba94;}.cls-29{fill:#ddb993;}.cls-30{fill:#dcb892;}.cls-31{fill:#dbb791;}.cls-32{fill:#dab690;}.cls-33{fill:#d9b58f;}.cls-34{fill:#d8b48e;}.cls-35{fill:#f9d7b3;}.cls-36{fill:#f8d6b2;}.cls-37{fill:#f7d5b1;}.cls-38{fill:#f6d4b0;}.cls-39{fill:#f5d3af;}.cls-40{fill:#d7b38d;}.cls-41{fill:#d6b28c;}.cls-42{fill:#d5b18b;}.cls-43{fill:#d4b08a;}.cls-44{fill:#d3af89;}.cls-45{fill:#d3ae88;}.cls-46{fill:#d2ad87;}.cls-47{fill:#d1ac86;}.cls-48{fill:#d0ab85;}.cls-49{fill:#cfaa84;}.cls-50{fill:#cea983;}</style><clipPath id="clip-path"><path class="cls-1" d="M14.51.7l6.18,3.72A4.78,4.78,0,0,1,23,8.5v7a4.76,4.76,0,0,1-2.31,4.07L14.42,23.3a4.87,4.87,0,0,1-4.88.08L3.45,20A4.76,4.76,0,0,1,1,15.82V8.5A4.78,4.78,0,0,1,3.31,4.42L9.49.7A4.86,4.86,0,0,1,14.51.7Zm3,15.8H7V18H17.5ZM12.25,6,8.8,10.59,5.52,8.77a.75.75,0,1,0-1.27-.55.76.76,0,0,0,1.13.65l.12-.09L7,15H17.5L19,8.8a.73.73,0,0,0,.46.15.75.75,0,1,0-.75-.75.77.77,0,0,0,.26.58L15.8,10.59Zm0-1.5a.75.75,0,1,0,.75.75A.76.76,0,0,0,12.25,4.5Z"/></clipPath></defs><g id="交互说明"><g id="icon"><g id="e签宝会员-2"><g id="e签宝会员"><g class="cls-2"><polygon class="cls-3" points="13 5.01 12.6 4.5 13 4.5 13 5.01"/><polygon class="cls-4" points="13 5.95 11.86 4.5 12.6 4.5 13 5.01 13 5.95"/><polygon class="cls-5" points="12.3 6 11.5 4.99 11.5 4.5 11.86 4.5 13 5.95 13 6 12.3 6"/><polygon class="cls-6" points="11.56 6 11.5 5.93 11.5 4.99 12.3 6 11.56 6"/><polygon class="cls-7" points="11.5 5.93 11.56 6 11.5 6 11.5 5.93"/><polygon class="cls-8" points="20.2 6.63 19.7 6 20.2 6 20.2 6.63"/><polygon class="cls-9" points="20.2 7.58 18.96 6 19.7 6 20.2 6.63 20.2 7.58"/><polygon class="cls-10" points="20.2 8.52 18.22 6 18.96 6 20.2 7.58 20.2 8.52"/><polygon class="cls-11" points="20.2 9.46 17.48 6 18.22 6 20.2 8.52 20.2 9.46"/><polygon class="cls-12" points="20.2 10.4 16.74 6 17.48 6 20.2 9.46 20.2 10.4"/><polygon class="cls-13" points="20.2 11.34 16 6 16.74 6 20.2 10.4 20.2 11.34"/><polygon class="cls-14" points="20.2 12.29 15.26 6 16 6 20.2 11.34 20.2 12.29"/><polygon class="cls-15" points="20.2 13.23 14.52 6 15.26 6 20.2 12.29 20.2 13.23"/><polygon class="cls-3" points="20.2 14.17 13.78 6 14.52 6 20.2 13.23 20.2 14.17"/><polygon class="cls-4" points="20.11 15 13.04 6 13.78 6 20.2 14.17 20.2 15 20.11 15"/><polygon class="cls-5" points="19.37 15 12.3 6 13.04 6 20.11 15 19.37 15"/><polygon class="cls-6" points="18.63 15 11.56 6 12.3 6 19.37 15 18.63 15"/><polygon class="cls-7" points="17.89 15 10.82 6 11.56 6 18.63 15 17.89 15"/><polygon class="cls-16" points="17.15 15 10.08 6 10.82 6 17.89 15 17.15 15"/><polygon class="cls-17" points="16.41 15 9.34 6 10.08 6 17.15 15 16.41 15"/><polygon class="cls-18" points="15.67 15 8.6 6 9.34 6 16.41 15 15.67 15"/><polygon class="cls-19" points="14.93 15 7.86 6 8.6 6 15.67 15 14.93 15"/><polygon class="cls-20" points="14.19 15 7.12 6 7.86 6 14.93 15 14.19 15"/><polygon class="cls-21" points="13.45 15 6.38 6 7.12 6 14.19 15 13.45 15"/><polygon class="cls-22" points="12.71 15 5.64 6 6.38 6 13.45 15 12.71 15"/><polygon class="cls-23" points="11.97 15 4.9 6 5.64 6 12.71 15 11.97 15"/><polygon class="cls-24" points="11.23 15 4.25 6.12 4.25 6 4.9 6 11.97 15 11.23 15"/><polygon class="cls-25" points="10.49 15 4.25 7.07 4.25 6.12 11.23 15 10.49 15"/><polygon class="cls-26" points="9.75 15 4.25 8.01 4.25 7.07 10.49 15 9.75 15"/><polygon class="cls-27" points="9.01 15 4.25 8.95 4.25 8.01 9.75 15 9.01 15"/><polygon class="cls-28" points="8.27 15 4.25 9.89 4.25 8.95 9.01 15 8.27 15"/><polygon class="cls-29" points="7.53 15 4.25 10.83 4.25 9.89 8.27 15 7.53 15"/><polygon class="cls-30" points="6.79 15 4.25 11.78 4.25 10.83 7.53 15 6.79 15"/><polygon class="cls-31" points="6.05 15 4.25 12.72 4.25 11.78 6.79 15 6.05 15"/><polygon class="cls-32" points="5.31 15 4.25 13.66 4.25 12.72 6.05 15 5.31 15"/><polygon class="cls-33" points="4.57 15 4.25 14.6 4.25 13.66 5.31 15 4.57 15"/><polygon class="cls-34" points="4.25 14.6 4.57 15 4.25 15 4.25 14.6"/><polygon class="cls-18" points="17.5 17.33 16.85 16.5 17.5 16.5 17.5 17.33"/><polygon class="cls-19" points="17.29 18 16.11 16.5 16.85 16.5 17.5 17.33 17.5 18 17.29 18"/><polygon class="cls-20" points="16.55 18 15.37 16.5 16.11 16.5 17.29 18 16.55 18"/><polygon class="cls-21" points="15.8 18 14.63 16.5 15.37 16.5 16.55 18 15.8 18"/><polygon class="cls-22" points="15.06 18 13.89 16.5 14.63 16.5 15.8 18 15.06 18"/><polygon class="cls-23" points="14.32 18 13.15 16.5 13.89 16.5 15.06 18 14.32 18"/><polygon class="cls-24" points="13.59 18 12.41 16.5 13.15 16.5 14.32 18 13.59 18"/><polygon class="cls-25" points="12.85 18 11.67 16.5 12.41 16.5 13.59 18 12.85 18"/><polygon class="cls-26" points="12.1 18 10.93 16.5 11.67 16.5 12.85 18 12.1 18"/><polygon class="cls-27" points="11.36 18 10.19 16.5 10.93 16.5 12.1 18 11.36 18"/><polygon class="cls-28" points="10.62 18 9.45 16.5 10.19 16.5 11.36 18 10.62 18"/><polygon class="cls-29" points="9.88 18 8.71 16.5 9.45 16.5 10.62 18 9.88 18"/><polygon class="cls-30" points="9.14 18 7.97 16.5 8.71 16.5 9.88 18 9.14 18"/><polygon class="cls-31" points="8.4 18 7.22 16.5 7.97 16.5 9.14 18 8.4 18"/><polygon class="cls-32" points="7.66 18 7 17.16 7 16.5 7.22 16.5 8.4 18 7.66 18"/><polygon class="cls-33" points="7 17.16 7.66 18 7 18 7 17.16"/><polygon class="cls-35" points="23 4.55 19.24 -0.23 23 -0.23 23 4.55"/><polygon class="cls-35" points="23 5.49 18.5 -0.23 19.24 -0.23 23 4.55 23 5.49"/><polygon class="cls-36" points="23 6.43 17.76 -0.23 18.5 -0.23 23 5.49 23 6.43"/><polygon class="cls-37" points="23 7.38 17.02 -0.23 17.76 -0.23 23 6.43 23 7.38"/><polygon class="cls-38" points="23 8.32 16.28 -0.23 17.02 -0.23 23 7.38 23 8.32"/><polygon class="cls-39" points="23 9.26 15.54 -0.23 16.28 -0.23 23 8.32 23 9.26"/><polygon class="cls-8" points="23 10.2 14.8 -0.23 15.54 -0.23 23 9.26 23 10.2"/><polygon class="cls-9" points="23 11.14 14.06 -0.23 14.8 -0.23 23 10.2 23 11.14"/><polygon class="cls-10" points="23 12.09 13.32 -0.23 14.06 -0.23 23 11.14 23 12.09"/><polygon class="cls-11" points="23 13.03 12.58 -0.23 13.32 -0.23 23 12.09 23 13.03"/><polygon class="cls-12" points="23 13.97 11.84 -0.23 12.58 -0.23 23 13.03 23 13.97"/><polygon class="cls-13" points="23 14.91 11.1 -0.23 11.84 -0.23 23 13.97 23 14.91"/><polygon class="cls-14" points="23 15.85 10.36 -0.23 11.1 -0.23 23 14.91 23 15.85"/><polygon class="cls-15" points="23 16.8 9.62 -0.23 10.36 -0.23 23 15.85 23 16.8"/><polygon class="cls-3" points="23 17.74 8.88 -0.23 9.62 -0.23 23 16.8 23 17.74"/><polygon class="cls-4" points="23 18.68 8.14 -0.23 8.88 -0.23 23 17.74 23 18.68"/><polygon class="cls-5" points="23 19.62 7.4 -0.23 8.14 -0.23 23 18.68 23 19.62"/><polygon class="cls-6" points="23 20.56 6.66 -0.23 7.4 -0.23 23 19.62 23 20.56"/><polygon class="cls-7" points="23 21.51 5.92 -0.23 6.66 -0.23 23 20.56 23 21.51"/><polygon class="cls-16" points="23 22.45 5.18 -0.23 5.92 -0.23 23 21.51 23 22.45"/><polygon class="cls-17" points="23 23.39 4.44 -0.23 5.18 -0.23 23 22.45 23 23.39"/><polygon class="cls-18" points="22.92 24.23 3.7 -0.23 4.44 -0.23 23 23.39 23 24.23 22.92 24.23"/><polygon class="cls-19" points="22.18 24.23 2.96 -0.23 3.7 -0.23 22.92 24.23 22.18 24.23"/><polygon class="cls-20" points="21.44 24.23 2.22 -0.23 2.96 -0.23 22.18 24.23 21.44 24.23"/><polygon class="cls-21" points="20.7 24.23 1.48 -0.23 2.22 -0.23 21.44 24.23 20.7 24.23"/><polygon class="cls-22" points="19.96 24.23 1 0.1 1 -0.23 1.48 -0.23 20.7 24.23 19.96 24.23"/><polygon class="cls-23" points="19.22 24.23 1 1.04 1 0.1 19.96 24.23 19.22 24.23"/><polygon class="cls-24" points="18.48 24.23 1 1.98 1 1.04 19.22 24.23 18.48 24.23"/><polygon class="cls-25" points="17.74 24.23 1 2.92 1 1.98 18.48 24.23 17.74 24.23"/><polygon class="cls-26" points="17 24.23 1 3.87 1 2.92 17.74 24.23 17 24.23"/><polygon class="cls-27" points="16.26 24.23 1 4.81 1 3.87 17 24.23 16.26 24.23"/><polygon class="cls-28" points="15.52 24.23 1 5.75 1 4.81 16.26 24.23 15.52 24.23"/><polygon class="cls-29" points="14.78 24.23 1 6.69 1 5.75 15.52 24.23 14.78 24.23"/><polygon class="cls-30" points="14.04 24.23 1 7.63 1 6.69 14.78 24.23 14.04 24.23"/><polygon class="cls-31" points="13.3 24.23 1 8.58 1 7.63 14.04 24.23 13.3 24.23"/><polygon class="cls-32" points="12.56 24.23 1 9.52 1 8.58 13.3 24.23 12.56 24.23"/><polygon class="cls-33" points="11.82 24.23 1 10.46 1 9.52 12.56 24.23 11.82 24.23"/><polygon class="cls-34" points="11.08 24.23 1 11.4 1 10.46 11.82 24.23 11.08 24.23"/><polygon class="cls-40" points="10.34 24.23 1 12.34 1 11.4 11.08 24.23 10.34 24.23"/><polygon class="cls-41" points="9.6 24.23 1 13.29 1 12.34 10.34 24.23 9.6 24.23"/><polygon class="cls-42" points="8.86 24.23 1 14.23 1 13.29 9.6 24.23 8.86 24.23"/><polygon class="cls-43" points="8.12 24.23 1 15.17 1 14.23 8.86 24.23 8.12 24.23"/><polygon class="cls-44" points="7.38 24.23 1 16.11 1 15.17 8.12 24.23 7.38 24.23"/><polygon class="cls-45" points="6.64 24.23 1 17.05 1 16.11 7.38 24.23 6.64 24.23"/><polygon class="cls-46" points="5.9 24.23 1 18 1 17.05 6.64 24.23 5.9 24.23"/><polygon class="cls-47" points="5.16 24.23 1 18.94 1 18 5.9 24.23 5.16 24.23"/><polygon class="cls-48" points="4.42 24.23 1 19.88 1 18.94 5.16 24.23 4.42 24.23"/><polygon class="cls-49" points="3.68 24.23 1 20.82 1 19.88 4.42 24.23 3.68 24.23"/><polygon class="cls-50" points="2.94 24.23 1 21.76 1 20.82 3.68 24.23 2.94 24.23"/><polygon class="cls-50" points="1 21.76 2.94 24.23 1 24.23 1 21.76"/></g></g></g></g></g></svg>