<svg id="图层_1" data-name="图层 1" xmlns="http://www.w3.org/2000/svg" viewBox="0 0 16 16"><defs><style>.cls-1{fill:#88909c;}</style></defs><g id="交互说明"><g id="icon"><g id="未实名"><path id="形状结合" class="cls-1" d="M7.73,2,8,2.2a9.25,9.25,0,0,0,1.84,1A6.57,6.57,0,0,0,12,3.64h.47V8.41c0,2.4-3.08,4.93-4.73,4.93S3,10.81,3,8.41H3V3.64h.47a6.57,6.57,0,0,0,2.14-.47,9.25,9.25,0,0,0,1.84-1h0Zm0,8.34a.81.81,0,0,0-.59.23.73.73,0,0,0-.26.59.75.75,0,0,0,.26.6.81.81,0,0,0,.59.24.93.93,0,0,0,.62-.23.86.86,0,0,0,.24-.61.81.81,0,0,0-.24-.59A.91.91,0,0,0,7.75,10.34ZM8.5,4.15H7l.28,5.59h.93Z"/></g></g></g></svg>