<svg id="图层_1" data-name="图层 1" xmlns="http://www.w3.org/2000/svg" viewBox="0 0 56 56"><defs><style>.cls-1{fill:#fff7ef;}.cls-2{fill:#cea983;fill-rule:evenodd;}</style></defs><g id="交互说明"><g id="个人中心设计说明"><g id="文档备份-2"><g id="会员"><g id="编组-8"><circle id="椭圆形备份" class="cls-1" cx="28" cy="28" r="28"/><g id="签骑缝章"><path id="形状结合" class="cls-2" d="M31,16a1,1,0,0,1,1,1v4.15A7.41,7.41,0,0,0,30.5,21a7.5,7.5,0,0,0,0,15,7.41,7.41,0,0,0,1.5-.15V39a1,1,0,0,1-1,1H17a1,1,0,0,1-1-1V17a1,1,0,0,1,1-1Zm5,17.6V39H34V35.13A7.29,7.29,0,0,0,36,33.6ZM40,18V38H38V18Zm-9.5,4a6.69,6.69,0,0,1,1.5.17V26.7l-.18,0L30.5,24l-1.32,2.68-3,.43,2.14,2.09-.51,2.94,2.65-1.39,1.5.79v3.29a7.47,7.47,0,0,1-1.27.17H30.5a6.5,6.5,0,0,1,0-13ZM34,23a6.53,6.53,0,0,1,2,2V32a6.53,6.53,0,0,1-2,2V27.87l.78-.76L34,27Zm2-6v6.4a7.29,7.29,0,0,0-2-1.53V17Z"/></g></g></g></g></g></g></svg>