<svg id="图层_1" data-name="图层 1" xmlns="http://www.w3.org/2000/svg" viewBox="0 0 16 16"><defs><style>.cls-1{fill:#51b277;}</style></defs><g id="交互说明"><g id="icon"><g id="实名"><path id="形状结合" class="cls-1" d="M7.73,2,8,2.2a9.25,9.25,0,0,0,1.84,1A6.57,6.57,0,0,0,12,3.64h.47V8.4h0c0,2.4-3.08,4.93-4.73,4.93S3,10.81,3,8.41H3V3.64h.47a6.57,6.57,0,0,0,2.14-.47,9.25,9.25,0,0,0,1.84-1h0Zm2.55,3.86a.42.42,0,0,0-.57,0h0L7.84,7.72h0l-.9.9L5.75,7.44a.42.42,0,0,0-.4-.12.41.41,0,0,0-.17.7h0L6.65,9.49a.4.4,0,0,0,.57,0h0l3.07-3.07A.41.41,0,0,0,10.28,5.86Z"/></g></g></g></svg>